<svg width="32" height="32" viewBox="0 0 32 32" fill="none" xmlns="http://www.w3.org/2000/svg">
<path d="M0 16C0 9.76296 0 6.64445 1.43057 4.3677C2.17656 3.18046 3.18046 2.17656 4.3677 1.43057C6.64445 0 9.76296 0 16 0C22.237 0 25.3556 0 27.6323 1.43057C28.8195 2.17656 29.8234 3.18046 30.5694 4.3677C32 6.64445 32 9.76296 32 16C32 22.237 32 25.3556 30.5694 27.6323C29.8234 28.8195 28.8195 29.8234 27.6323 30.5694C25.3556 32 22.237 32 16 32C9.76296 32 6.64445 32 4.3677 30.5694C3.18046 29.8234 2.17656 28.8195 1.43057 27.6323C0 25.3556 0 22.237 0 16Z" fill="#0C1C33"/>
<path opacity="0.2" d="M16 6.75L7.75 9.5V12.25H9.58333V20.5L7.75 21.875V24.1667H24.25V21.4167L22.4167 20.5V12.25H24.25V9.5L16 6.75Z" fill="white"/>
<path d="M24.25 13.1666C24.3704 13.1667 24.4896 13.143 24.6009 13.0969C24.7121 13.0509 24.8132 12.9833 24.8983 12.8982C24.9834 12.8131 25.0509 12.712 25.097 12.6008C25.143 12.4896 25.1667 12.3703 25.1667 12.25V9.49996C25.1668 9.30762 25.1063 9.12014 24.9938 8.96412C24.8813 8.80809 24.7226 8.69145 24.5401 8.63074L16.2901 5.88074C16.1018 5.81807 15.8983 5.81807 15.71 5.88074L7.46 8.63074C7.27749 8.69145 7.11874 8.80809 7.00626 8.96412C6.89379 9.12014 6.8333 9.30762 6.83337 9.49996V12.25C6.83334 12.3703 6.85703 12.4896 6.90309 12.6008C6.94914 12.712 7.01666 12.8131 7.10179 12.8982C7.18692 12.9833 7.28798 13.0509 7.39921 13.0969C7.51044 13.143 7.62965 13.1667 7.75004 13.1666H8.66671V19.7522C8.13205 19.9405 7.66879 20.2897 7.34054 20.7519C7.01228 21.214 6.83512 21.7664 6.83337 22.3333V24.1666C6.83334 24.287 6.85703 24.4062 6.90309 24.5175C6.94914 24.6287 7.01666 24.7297 7.10179 24.8149C7.18692 24.9 7.28798 24.9675 7.39921 25.0136C7.51044 25.0596 7.62965 25.0833 7.75004 25.0833H24.25C24.3704 25.0833 24.4896 25.0596 24.6009 25.0136C24.7121 24.9675 24.8132 24.9 24.8983 24.8149C24.9834 24.7297 25.0509 24.6287 25.097 24.5175C25.143 24.4062 25.1667 24.287 25.1667 24.1666V22.3333C25.165 21.7664 24.9878 21.214 24.6595 20.7519C24.3313 20.2897 23.868 19.9405 23.3334 19.7522V13.1666H24.25ZM23.3334 23.25H8.66671V22.3333C8.66695 22.0903 8.76361 21.8572 8.93546 21.6854C9.10732 21.5135 9.34033 21.4169 9.58337 21.4166H22.4167C22.6597 21.4169 22.8928 21.5135 23.0646 21.6854C23.2365 21.8572 23.3331 22.0903 23.3334 22.3333V23.25ZM10.5 19.5833V13.1666H12.3334V19.5833H10.5ZM14.1667 19.5833V13.1666H17.8334V19.5833H14.1667ZM19.6667 19.5833V13.1666H21.5V19.5833H19.6667ZM8.66671 11.3333V10.1606L16 7.71585L23.3334 10.1606V11.3333H8.66671Z" fill="white"/>
</svg>
