<svg width="32" height="32" viewBox="0 0 32 32" fill="none" xmlns="http://www.w3.org/2000/svg">
<path d="M0 16C0 9.76296 0 6.64445 1.43057 4.3677C2.17656 3.18046 3.18046 2.17656 4.3677 1.43057C6.64445 0 9.76296 0 16 0C22.237 0 25.3556 0 27.6323 1.43057C28.8195 2.17656 29.8234 3.18046 30.5694 4.3677C32 6.64445 32 9.76296 32 16C32 22.237 32 25.3556 30.5694 27.6323C29.8234 28.8195 28.8195 29.8234 27.6323 30.5694C25.3556 32 22.237 32 16 32C9.76296 32 6.64445 32 4.3677 30.5694C3.18046 29.8234 2.17656 28.8195 1.43057 27.6323C0 25.3556 0 22.237 0 16Z" fill="#0C1C33"/>
<rect opacity="0.2" x="6" y="10" width="20" height="12" fill="white"/>
<path d="M10 15C9.80222 15 9.60888 15.0586 9.44443 15.1685C9.27998 15.2784 9.15181 15.4346 9.07612 15.6173C9.00043 15.8 8.98063 16.0011 9.01921 16.1951C9.0578 16.3891 9.15304 16.5673 9.29289 16.7071C9.43275 16.847 9.61093 16.9422 9.80491 16.9808C9.99889 17.0194 10.2 16.9996 10.3827 16.9239C10.5654 16.8482 10.7216 16.72 10.8315 16.5556C10.9414 16.3911 11 16.1978 11 16C11 15.7348 10.8946 15.4804 10.7071 15.2929C10.5196 15.1054 10.2652 15 10 15ZM22 15C21.8022 15 21.6089 15.0586 21.4444 15.1685C21.28 15.2784 21.1518 15.4346 21.0761 15.6173C21.0004 15.8 20.9806 16.0011 21.0192 16.1951C21.0578 16.3891 21.153 16.5673 21.2929 16.7071C21.4327 16.847 21.6109 16.9422 21.8049 16.9808C21.9989 17.0194 22.2 16.9996 22.3827 16.9239C22.5654 16.8482 22.7216 16.72 22.8315 16.5556C22.9414 16.3911 23 16.1978 23 16C23 15.7348 22.8946 15.4804 22.7071 15.2929C22.5196 15.1054 22.2652 15 22 15ZM24 9H8C7.20435 9 6.44129 9.31607 5.87868 9.87868C5.31607 10.4413 5 11.2044 5 12V20C5 20.7956 5.31607 21.5587 5.87868 22.1213C6.44129 22.6839 7.20435 23 8 23H24C24.7956 23 25.5587 22.6839 26.1213 22.1213C26.6839 21.5587 27 20.7956 27 20V12C27 11.2044 26.6839 10.4413 26.1213 9.87868C25.5587 9.31607 24.7956 9 24 9ZM25 20C25 20.2652 24.8946 20.5196 24.7071 20.7071C24.5196 20.8946 24.2652 21 24 21H8C7.73478 21 7.48043 20.8946 7.29289 20.7071C7.10536 20.5196 7 20.2652 7 20V12C7 11.7348 7.10536 11.4804 7.29289 11.2929C7.48043 11.1054 7.73478 11 8 11H24C24.2652 11 24.5196 11.1054 24.7071 11.2929C24.8946 11.4804 25 11.7348 25 12V20ZM16 13C15.4067 13 14.8266 13.1759 14.3333 13.5056C13.8399 13.8352 13.4554 14.3038 13.2284 14.8519C13.0013 15.4001 12.9419 16.0033 13.0576 16.5853C13.1734 17.1672 13.4591 17.7018 13.8787 18.1213C14.2982 18.5409 14.8328 18.8266 15.4147 18.9424C15.9967 19.0581 16.5999 18.9987 17.1481 18.7716C17.6962 18.5446 18.1648 18.1601 18.4944 17.6667C18.8241 17.1734 19 16.5933 19 16C19 15.2044 18.6839 14.4413 18.1213 13.8787C17.5587 13.3161 16.7956 13 16 13ZM16 17C15.8022 17 15.6089 16.9414 15.4444 16.8315C15.28 16.7216 15.1518 16.5654 15.0761 16.3827C15.0004 16.2 14.9806 15.9989 15.0192 15.8049C15.0578 15.6109 15.153 15.4327 15.2929 15.2929C15.4327 15.153 15.6109 15.0578 15.8049 15.0192C15.9989 14.9806 16.2 15.0004 16.3827 15.0761C16.5654 15.1518 16.7216 15.28 16.8315 15.4444C16.9414 15.6089 17 15.8022 17 16C17 16.2652 16.8946 16.5196 16.7071 16.7071C16.5196 16.8946 16.2652 17 16 17Z" fill="white"/>
</svg>
