<svg width="28" height="28" viewBox="0 0 28 28" fill="none" xmlns="http://www.w3.org/2000/svg">
<path d="M0 14C0 8.54259 0 5.81389 1.25175 3.82174C1.90449 2.78291 2.78291 1.90449 3.82174 1.25175C5.81389 0 8.54259 0 14 0C19.4574 0 22.1861 0 24.1783 1.25175C25.2171 1.90449 26.0955 2.78291 26.7482 3.82174C28 5.81389 28 8.54259 28 14C28 19.4574 28 22.1861 26.7482 24.1783C26.0955 25.2171 25.2171 26.0955 24.1783 26.7482C22.1861 28 19.4574 28 14 28C8.54259 28 5.81389 28 3.82174 26.7482C2.78291 26.0955 1.90449 25.2171 1.25175 24.1783C0 22.1861 0 19.4574 0 14Z" fill="#00D54B"/>
<path d="M14.7198 9.13955C16.1092 9.14168 17.453 9.63538 18.5135 10.5333C18.623 10.6326 18.7664 10.6862 18.9141 10.6832C19.0619 10.6801 19.2029 10.6207 19.3082 10.517L20.4006 9.42093C20.4553 9.36656 20.4983 9.30139 20.5267 9.22961C20.5551 9.15784 20.5683 9.08097 20.5656 9.00379C20.5628 8.92661 20.5441 8.85087 20.5106 8.7813C20.4772 8.71172 20.4296 8.64987 20.3711 8.59959C19.5132 7.86946 18.5212 7.31379 17.4506 6.96371L17.7777 5.35053C17.7946 5.26763 17.793 5.18199 17.7727 5.09984C17.7524 5.01768 17.7141 4.94108 17.6606 4.87559C17.607 4.8101 17.5395 4.75736 17.4631 4.72123C17.3866 4.6851 17.303 4.66646 17.2184 4.66669H15.1156C14.9853 4.66656 14.8588 4.71093 14.7571 4.79245C14.6554 4.87396 14.5846 4.98776 14.5563 5.11502L14.2619 6.55788C11.4624 6.6954 9.08807 8.08265 9.08807 10.926C9.08807 13.3832 11.0504 14.4401 13.1239 15.1796C15.086 15.9092 16.1261 16.1809 16.1261 17.2082C16.1261 18.2356 15.0894 18.8834 13.5621 18.8834C12.0799 18.9071 10.6479 18.3466 9.57544 17.3229C9.46895 17.2181 9.32572 17.1594 9.17639 17.1594C9.02713 17.1594 8.88383 17.2181 8.77741 17.3229L7.60654 18.4678C7.55189 18.5206 7.50835 18.5839 7.47864 18.6539C7.44892 18.7239 7.43359 18.7992 7.43359 18.8752C7.43359 18.9512 7.44892 19.0265 7.47864 19.0964C7.50835 19.1665 7.55189 19.2297 7.60654 19.2825C8.56055 20.1765 9.72489 20.8147 10.9914 21.1378L10.6644 22.6331C10.6472 22.7166 10.6484 22.8029 10.6682 22.8859C10.6879 22.9689 10.7256 23.0466 10.7786 23.1134C10.8317 23.1802 10.8987 23.2345 10.975 23.2725C11.0514 23.3105 11.1352 23.3313 11.2204 23.3333H13.3298C13.4611 23.334 13.5887 23.2896 13.6911 23.2074C13.7935 23.1251 13.8646 23.0102 13.8924 22.8818L14.1965 21.465C17.552 21.2588 19.6025 19.4528 19.6025 16.809C19.6025 14.3746 17.5585 13.3473 15.0763 12.5097C13.6569 11.9763 12.4304 11.6262 12.4304 10.5727C12.4304 9.5191 13.5751 9.13955 14.7198 9.13955Z" fill="white"/>
</svg>
