<svg width="28" height="28" viewBox="0 0 28 28" fill="none" xmlns="http://www.w3.org/2000/svg">
<path d="M0 14C0 8.54259 0 5.81389 1.25175 3.82174C1.90449 2.78291 2.78291 1.90449 3.82174 1.25175C5.81389 0 8.54259 0 14 0C19.4574 0 22.1861 0 24.1783 1.25175C25.2171 1.90449 26.0955 2.78291 26.7482 3.82174C28 5.81389 28 8.54259 28 14C28 19.4574 28 22.1861 26.7482 24.1783C26.0955 25.2171 25.2171 26.0955 24.1783 26.7482C22.1861 28 19.4574 28 14 28C8.54259 28 5.81389 28 3.82174 26.7482C2.78291 26.0955 1.90449 25.2171 1.25175 24.1783C0 22.1861 0 19.4574 0 14Z" fill="#0C1C33"/>
<rect opacity="0.2" x="6.125" y="8.75" width="15.75" height="11.375" fill="white"/>
<path d="M9.625 16.625H12.25C12.4821 16.625 12.7046 16.5328 12.8687 16.3687C13.0328 16.2046 13.125 15.9821 13.125 15.75C13.125 15.5179 13.0328 15.2954 12.8687 15.1313C12.7046 14.9672 12.4821 14.875 12.25 14.875H9.625C9.39294 14.875 9.17038 14.9672 9.00628 15.1313C8.84219 15.2954 8.75 15.5179 8.75 15.75C8.75 15.9821 8.84219 16.2046 9.00628 16.3687C9.17038 16.5328 9.39294 16.625 9.625 16.625ZM20.125 7.875H7.875C7.17881 7.875 6.51113 8.15156 6.01884 8.64384C5.52656 9.13613 5.25 9.80381 5.25 10.5V18.375C5.25 19.0712 5.52656 19.7389 6.01884 20.2312C6.51113 20.7234 7.17881 21 7.875 21H20.125C20.8212 21 21.4889 20.7234 21.9812 20.2312C22.4734 19.7389 22.75 19.0712 22.75 18.375V10.5C22.75 9.80381 22.4734 9.13613 21.9812 8.64384C21.4889 8.15156 20.8212 7.875 20.125 7.875ZM21 18.375C21 18.6071 20.9078 18.8296 20.7437 18.9937C20.5796 19.1578 20.3571 19.25 20.125 19.25H7.875C7.64294 19.25 7.42038 19.1578 7.25628 18.9937C7.09219 18.8296 7 18.6071 7 18.375V13.125H21V18.375ZM21 11.375H7V10.5C7 10.2679 7.09219 10.0454 7.25628 9.88128C7.42038 9.71719 7.64294 9.625 7.875 9.625H20.125C20.3571 9.625 20.5796 9.71719 20.7437 9.88128C20.9078 10.0454 21 10.2679 21 10.5V11.375Z" fill="white"/>
</svg>
