<svg width="28" height="28" viewBox="0 0 28 28" fill="none" xmlns="http://www.w3.org/2000/svg">
<path d="M0 14C0 8.54259 0 5.81389 1.25175 3.82174C1.90449 2.78291 2.78291 1.90449 3.82174 1.25175C5.81389 0 8.54259 0 14 0C19.4574 0 22.1861 0 24.1783 1.25175C25.2171 1.90449 26.0955 2.78291 26.7482 3.82174C28 5.81389 28 8.54259 28 14C28 19.4574 28 22.1861 26.7482 24.1783C26.0955 25.2171 25.2171 26.0955 24.1783 26.7482C22.1861 28 19.4574 28 14 28C8.54259 28 5.81389 28 3.82174 26.7482C2.78291 26.0955 1.90449 25.2171 1.25175 24.1783C0 22.1861 0 19.4574 0 14Z" fill="#F5AC37"/>
<path d="M14.6569 15.0024H19.9973C20.1111 15.0024 20.1648 15.0024 20.1731 14.852C20.2167 14.3045 20.2167 13.7538 20.1731 13.2056C20.1731 13.0992 20.1206 13.0552 20.0061 13.0552H9.37794C9.24639 13.0552 9.21098 13.0992 9.21098 13.2235V14.7991C9.21098 15.0024 9.21098 15.0024 9.42158 15.0024H14.6569ZM19.5767 11.2138C19.5919 11.1737 19.5919 11.1297 19.5767 11.0902C19.4875 10.8945 19.3819 10.7077 19.2592 10.5325C19.0745 10.2329 18.857 9.95691 18.609 9.70897C18.492 9.55919 18.3567 9.4247 18.2049 9.31061C17.4447 8.65857 16.541 8.19711 15.5695 7.96511C15.0794 7.8542 14.5785 7.8013 14.0763 7.80576H9.3596C9.22805 7.80576 9.21034 7.85867 9.21034 7.97403V11.1163C9.21034 11.2489 9.21034 11.2846 9.37731 11.2846H19.5134C19.5134 11.2846 19.6013 11.2667 19.6191 11.2138H19.576H19.5767ZM19.5767 16.8438C19.4274 16.8272 19.2769 16.8272 19.1276 16.8438H9.38679C9.25525 16.8438 9.21098 16.8438 9.21098 17.021V20.0931C9.21098 20.2346 9.21098 20.2703 9.38679 20.2703H13.8841C14.0991 20.2869 14.3141 20.2716 14.5247 20.2263C15.1774 20.1792 15.8193 20.0364 16.4316 19.8012C16.6542 19.7234 16.8692 19.6221 17.0722 19.5004H17.1336C18.1878 18.9477 19.0442 18.0796 19.5843 17.0139C19.5843 17.0139 19.6456 16.8801 19.5767 16.845V16.8438ZM7.44583 21.8631V21.8102V19.7477V19.0485V16.9681C7.44583 16.8527 7.44583 16.8355 7.30543 16.8355H5.39926C5.29364 16.8355 5.25 16.8355 5.25 16.694V15.0119H7.28772C7.40156 15.0119 7.44583 15.0119 7.44583 14.8615V13.1973C7.44583 13.0909 7.44583 13.0648 7.30543 13.0648H5.39926C5.29364 13.0648 5.25 13.0648 5.25 12.9233V11.3655C5.25 11.268 5.25 11.2419 5.3904 11.2419H7.27887C7.41042 11.2419 7.44583 11.2419 7.44583 11.0736V6.30219C7.44583 6.16069 7.44583 6.125 7.62165 6.125H14.2092C14.6873 6.14412 15.1622 6.19702 15.6321 6.28434C16.6004 6.46472 17.5307 6.81337 18.3814 7.31116C18.9455 7.64578 19.4647 8.04988 19.927 8.51516C20.2749 8.87911 20.5886 9.27301 20.8669 9.6924C21.1432 10.1175 21.3728 10.572 21.5531 11.0468C21.5752 11.1705 21.6928 11.254 21.8155 11.2329H23.3878C23.5895 11.2329 23.5895 11.2329 23.5984 11.428V12.8799C23.5984 13.0214 23.5459 13.0571 23.4048 13.0571H22.1925C22.0698 13.0571 22.0343 13.0571 22.0432 13.2165C22.0913 13.7557 22.0913 14.2968 22.0432 14.836C22.0432 14.9865 22.0432 15.0043 22.2108 15.0043H23.5977C23.6591 15.084 23.5977 15.1636 23.5977 15.244C23.6066 15.3466 23.6066 15.4505 23.5977 15.5531V16.6245C23.5977 16.7749 23.5541 16.8195 23.4219 16.8195H21.7618C21.646 16.7972 21.5334 16.8718 21.5069 16.9878C21.1116 18.0236 20.4792 18.9522 19.6621 19.6967C19.3635 19.9676 19.0499 20.2225 18.7222 20.4577C18.3706 20.6617 18.0285 20.8739 17.668 21.0422C17.0045 21.343 16.3089 21.5648 15.5948 21.7057C14.9169 21.8281 14.2294 21.8835 13.5394 21.8739H7.4433V21.865L7.44583 21.8631Z" fill="#FEFEFD"/>
</svg>
