<svg width="32" height="32" viewBox="0 0 32 32" fill="none" xmlns="http://www.w3.org/2000/svg">
<path d="M0 16C0 9.76296 0 6.64445 1.43057 4.3677C2.17656 3.18046 3.18046 2.17656 4.3677 1.43057C6.64445 0 9.76296 0 16 0C22.237 0 25.3556 0 27.6323 1.43057C28.8195 2.17656 29.8234 3.18046 30.5694 4.3677C32 6.64445 32 9.76296 32 16C32 22.237 32 25.3556 30.5694 27.6323C29.8234 28.8195 28.8195 29.8234 27.6323 30.5694C25.3556 32 22.237 32 16 32C9.76296 32 6.64445 32 4.3677 30.5694C3.18046 29.8234 2.17656 28.8195 1.43057 27.6323C0 25.3556 0 22.237 0 16Z" fill="#0C1C33"/>
<rect opacity="0.2" x="7.75" y="8.66663" width="12.8333" height="15.5833" fill="white"/>
<rect opacity="0.2" width="3.66667" height="7.33333" transform="matrix(-1 0 0 1 24.25 16.9166)" fill="white"/>
<path d="M13.25 16H11.4167C11.1736 16 10.9404 16.0966 10.7685 16.2685C10.5966 16.4404 10.5 16.6736 10.5 16.9167C10.5 17.1598 10.5966 17.393 10.7685 17.5649C10.9404 17.7368 11.1736 17.8334 11.4167 17.8334H13.25C13.4932 17.8334 13.7263 17.7368 13.8982 17.5649C14.0701 17.393 14.1667 17.1598 14.1667 16.9167C14.1667 16.6736 14.0701 16.4404 13.8982 16.2685C13.7263 16.0966 13.4932 16 13.25 16ZM12.3334 14.1667H16C16.2432 14.1667 16.4763 14.0701 16.6482 13.8982C16.8201 13.7263 16.9167 13.4931 16.9167 13.25C16.9167 13.0069 16.8201 12.7737 16.6482 12.6018C16.4763 12.4299 16.2432 12.3334 16 12.3334H12.3334C12.0903 12.3334 11.8571 12.4299 11.6852 12.6018C11.5133 12.7737 11.4167 13.0069 11.4167 13.25C11.4167 13.4931 11.5133 13.7263 11.6852 13.8982C11.8571 14.0701 12.0903 14.1667 12.3334 14.1667ZM13.25 19.6667H11.4167C11.1736 19.6667 10.9404 19.7633 10.7685 19.9352C10.5966 20.1071 10.5 20.3402 10.5 20.5834C10.5 20.8265 10.5966 21.0596 10.7685 21.2315C10.9404 21.4034 11.1736 21.5 11.4167 21.5H13.25C13.4932 21.5 13.7263 21.4034 13.8982 21.2315C14.0701 21.0596 14.1667 20.8265 14.1667 20.5834C14.1667 20.3402 14.0701 20.1071 13.8982 19.9352C13.7263 19.7633 13.4932 19.6667 13.25 19.6667ZM24.25 16H21.5V7.75002C21.5007 7.5885 21.4586 7.42967 21.3781 7.28962C21.2977 7.14958 21.1816 7.03328 21.0417 6.95252C20.9024 6.87207 20.7443 6.82971 20.5834 6.82971C20.4225 6.82971 20.2644 6.87207 20.125 6.95252L17.375 8.52919L14.625 6.95252C14.4857 6.87207 14.3276 6.82971 14.1667 6.82971C14.0058 6.82971 13.8477 6.87207 13.7084 6.95252L10.9584 8.52919L8.20838 6.95252C8.06903 6.87207 7.91096 6.82971 7.75005 6.82971C7.58914 6.82971 7.43107 6.87207 7.29171 6.95252C7.15183 7.03328 7.03576 7.14958 6.95528 7.28962C6.87479 7.42967 6.83274 7.5885 6.83338 7.75002V22.4167C6.83338 23.146 7.12311 23.8455 7.63884 24.3612C8.15456 24.877 8.85404 25.1667 9.58338 25.1667H22.4167C23.1461 25.1667 23.8455 24.877 24.3613 24.3612C24.877 23.8455 25.1667 23.146 25.1667 22.4167V16.9167C25.1667 16.6736 25.0701 16.4404 24.8982 16.2685C24.7263 16.0966 24.4932 16 24.25 16ZM9.58338 23.3334C9.34027 23.3334 9.10711 23.2368 8.9352 23.0649C8.76329 22.893 8.66671 22.6598 8.66671 22.4167V9.33586L10.5 10.3809C10.6415 10.4547 10.7988 10.4933 10.9584 10.4933C11.118 10.4933 11.2752 10.4547 11.4167 10.3809L14.1667 8.80419L16.9167 10.3809C17.0582 10.4547 17.2154 10.4933 17.375 10.4933C17.5347 10.4933 17.6919 10.4547 17.8334 10.3809L19.6667 9.33586V22.4167C19.6692 22.7294 19.725 23.0394 19.8317 23.3334H9.58338ZM23.3334 22.4167C23.3334 22.6598 23.2368 22.893 23.0649 23.0649C22.893 23.2368 22.6598 23.3334 22.4167 23.3334C22.1736 23.3334 21.9404 23.2368 21.7685 23.0649C21.5966 22.893 21.5 22.6598 21.5 22.4167V17.8334H23.3334V22.4167ZM17.43 19.8225C17.3789 19.7878 17.3235 19.7601 17.265 19.74C17.2105 19.7121 17.1516 19.6935 17.0909 19.685C16.9436 19.6555 16.7914 19.6627 16.6475 19.7058C16.5036 19.749 16.3726 19.8268 16.2659 19.9325C16.0984 20.1082 16.0034 20.3407 16 20.5834C15.9986 20.7025 16.0204 20.8209 16.0642 20.9317C16.114 21.0431 16.1822 21.1453 16.2659 21.2342C16.355 21.3152 16.4573 21.3803 16.5684 21.4267C16.6781 21.4752 16.7967 21.5002 16.9167 21.5002C17.0367 21.5002 17.1553 21.4752 17.265 21.4267C17.3761 21.3803 17.4784 21.3152 17.5675 21.2342C17.6525 21.1485 17.7197 21.047 17.7653 20.9353C17.811 20.8236 17.8341 20.704 17.8334 20.5834C17.83 20.3407 17.7351 20.1082 17.5675 19.9325C17.524 19.8931 17.4781 19.8564 17.43 19.8225ZM17.5584 16.2659C17.4513 16.1616 17.3205 16.0851 17.1771 16.043C17.0337 16.0009 16.8823 15.9945 16.7359 16.0243C16.5895 16.0542 16.4526 16.1193 16.3371 16.2141C16.2217 16.309 16.1311 16.4306 16.0734 16.5684C16.0163 16.7072 15.9943 16.858 16.0091 17.0074C16.024 17.1568 16.0753 17.3003 16.1586 17.4252C16.2418 17.5501 16.3545 17.6526 16.4867 17.7238C16.6189 17.795 16.7666 17.8326 16.9167 17.8334C17.1598 17.8334 17.393 17.7368 17.5649 17.5649C17.7368 17.393 17.8334 17.1598 17.8334 16.9167C17.8319 16.7969 17.807 16.6786 17.76 16.5684C17.7159 16.4539 17.647 16.3506 17.5584 16.2659Z" fill="white"/>
</svg>
