<svg width="28" height="28" viewBox="0 0 28 28" fill="none" xmlns="http://www.w3.org/2000/svg">
<path d="M0 14C0 8.54259 0 5.81389 1.25175 3.82174C1.90449 2.78291 2.78291 1.90449 3.82174 1.25175C5.81389 0 8.54259 0 14 0C19.4574 0 22.1861 0 24.1783 1.25175C25.2171 1.90449 26.0955 2.78291 26.7482 3.82174C28 5.81389 28 8.54259 28 14C28 19.4574 28 22.1861 26.7482 24.1783C26.0955 25.2171 25.2171 26.0955 24.1783 26.7482C22.1861 28 19.4574 28 14 28C8.54259 28 5.81389 28 3.82174 26.7482C2.78291 26.0955 1.90449 25.2171 1.25175 24.1783C0 22.1861 0 19.4574 0 14Z" fill="white"/>
<path d="M10.5842 22.6998L10.9077 20.645L10.1871 20.6283H6.74609L9.13741 5.46576C9.14453 5.41943 9.16806 5.3772 9.20371 5.34678C9.23936 5.31635 9.28476 5.29974 9.33163 5.29999H15.1336C17.0598 5.29999 18.3891 5.70081 19.0831 6.49194C19.4085 6.86307 19.6157 7.2509 19.7159 7.67769C19.821 8.12553 19.8229 8.66056 19.7202 9.31315L19.7128 9.36077V9.7789L20.0381 9.96324C20.2865 10.0891 20.5098 10.2593 20.6969 10.4655C20.9752 10.7828 21.1552 11.1861 21.2313 11.6642C21.3099 12.156 21.2839 12.7411 21.1552 13.4036C21.0068 14.1657 20.7668 14.8294 20.4427 15.3725C20.1567 15.859 19.7722 16.2804 19.3138 16.6096C18.8833 16.9151 18.3717 17.1471 17.7934 17.2955C17.233 17.4415 16.594 17.5151 15.8932 17.5151H15.4417C15.1188 17.5151 14.8052 17.6314 14.559 17.8399C14.3132 18.0505 14.1501 18.3416 14.0988 18.6613L14.0648 18.8462L13.4932 22.4678L13.4673 22.6008C13.4605 22.6429 13.4487 22.6639 13.4314 22.6781C13.4146 22.6919 13.3937 22.6995 13.372 22.6998H10.5842Z" fill="#253B80"/>
<path d="M20.346 9.40979C20.3287 9.5205 20.3089 9.63371 20.2866 9.74998C19.5215 13.6784 16.9038 15.0355 13.5605 15.0355H11.8583C11.4494 15.0355 11.1049 15.3324 11.0412 15.7357L10.1696 21.2631L9.92283 22.8298C9.913 22.892 9.91675 22.9555 9.93383 23.0161C9.95091 23.0766 9.98091 23.1328 10.0218 23.1806C10.0626 23.2285 10.1134 23.2669 10.1705 23.2933C10.2276 23.3196 10.2898 23.3333 10.3527 23.3333H13.3718C13.7294 23.3333 14.0331 23.0736 14.0894 22.721L14.1191 22.5676L14.6875 18.9602L14.724 18.7623C14.7797 18.4084 15.084 18.1486 15.4415 18.1486H15.8931C18.8182 18.1486 21.1081 16.961 21.7774 13.5244C22.0569 12.0887 21.9122 10.89 21.1724 10.0469C20.9379 9.78607 20.6579 9.5702 20.346 9.40979Z" fill="#179BD7"/>
<path d="M19.546 9.09073C19.3016 9.02004 19.0531 8.96487 18.8018 8.92555C18.3053 8.84926 17.8035 8.81264 17.3012 8.81608H12.7537C12.5806 8.81595 12.4132 8.87772 12.2817 8.99026C12.1502 9.1028 12.0633 9.25869 12.0367 9.42967L11.0693 15.557L11.0415 15.7358C11.0716 15.5408 11.1706 15.3629 11.3205 15.2345C11.4703 15.106 11.6612 15.0355 11.8586 15.0356H13.5608C16.9041 15.0356 19.5218 13.6779 20.287 9.75008C20.3098 9.6338 20.329 9.5206 20.3463 9.40989C20.1444 9.30403 19.934 9.21525 19.7173 9.14453C19.6604 9.1257 19.6033 9.10773 19.546 9.09073Z" fill="#222D65"/>
<path d="M12.0365 9.42892C12.0629 9.25786 12.1497 9.10193 12.2813 8.98943C12.4128 8.87693 12.5803 8.81537 12.7534 8.81591H17.301C17.8398 8.81591 18.3427 8.85117 18.8016 8.92542C19.1122 8.9742 19.4185 9.04721 19.7177 9.14374C19.9435 9.21861 20.1532 9.30705 20.3468 9.4091C20.5744 7.95737 20.3449 6.96893 19.56 6.07389C18.6946 5.08854 17.1328 4.66669 15.1342 4.66669H9.33223C8.92399 4.66669 8.57574 4.96359 8.51265 5.3675L6.09597 20.6859C6.08472 20.757 6.089 20.8297 6.10853 20.899C6.12805 20.9684 6.16236 21.0326 6.20909 21.0874C6.25582 21.1422 6.31386 21.1862 6.37922 21.2164C6.44459 21.2466 6.51571 21.2623 6.58772 21.2624H10.1697L11.0691 15.5563L12.0365 9.42892Z" fill="#253B80"/>
</svg>
