<svg width="28" height="28" viewBox="0 0 28 28" fill="none" xmlns="http://www.w3.org/2000/svg">
<path d="M0 14C0 8.54259 0 5.81389 1.25175 3.82174C1.90449 2.78291 2.78291 1.90449 3.82174 1.25175C5.81389 0 8.54259 0 14 0C19.4574 0 22.1861 0 24.1783 1.25175C25.2171 1.90449 26.0955 2.78291 26.7482 3.82174C28 5.81389 28 8.54259 28 14C28 19.4574 28 22.1861 26.7482 24.1783C26.0955 25.2171 25.2171 26.0955 24.1783 26.7482C22.1861 28 19.4574 28 14 28C8.54259 28 5.81389 28 3.82174 26.7482C2.78291 26.0955 1.90449 25.2171 1.25175 24.1783C0 22.1861 0 19.4574 0 14Z" fill="#2775CA"/>
<path d="M17.8574 15.9472C17.8574 14 16.639 13.3324 14.2022 13.0543C12.4617 12.8317 12.1136 12.3866 12.1136 11.6076C12.1136 10.8286 12.6938 10.328 13.8541 10.328C14.8985 10.328 15.4787 10.6619 15.7687 11.4964C15.8268 11.6633 16.0009 11.7745 16.1749 11.7745H17.1031C17.3352 11.7745 17.5093 11.6076 17.5093 11.3852V11.3295C17.2772 10.1054 16.2328 9.15968 14.8985 9.04845V7.71318C14.8985 7.49059 14.7244 7.32369 14.4344 7.26801H13.5641C13.332 7.26801 13.1579 7.43491 13.0999 7.71318V8.99277C11.3593 9.21536 10.2571 10.328 10.2571 11.719C10.2571 13.555 11.4174 14.2782 13.8541 14.5564C15.4787 14.8346 16.0009 15.1684 16.0009 16.0586C16.0009 16.9488 15.1885 17.5608 14.0863 17.5608C12.5777 17.5608 12.0555 16.9487 11.8815 16.1142C11.8236 15.8917 11.6495 15.7803 11.4754 15.7803H10.489C10.2571 15.7803 10.083 15.9472 10.083 16.1698V16.2255C10.315 17.6163 11.2433 18.6178 13.1579 18.896V20.2313C13.1579 20.4538 13.332 20.6207 13.622 20.6764H14.4923C14.7244 20.6764 14.8985 20.5094 14.9565 20.2313V18.896C16.6971 18.6178 17.8574 17.4494 17.8574 15.9472Z" fill="white"/>
<path d="M11.0693 21.789C6.54389 20.2313 4.22312 15.3909 5.90574 11.1069C6.77601 8.77016 8.69061 6.98985 11.0693 6.15531C11.3014 6.04408 11.4174 5.87717 11.4174 5.5989V4.82004C11.4174 4.59746 11.3014 4.43055 11.0693 4.375C11.0112 4.375 10.8953 4.375 10.8372 4.43055C5.32551 6.09963 2.30852 11.719 4.04907 17.0043C5.09339 20.1199 7.58822 22.5123 10.8372 23.5138C11.0693 23.625 11.3014 23.5138 11.3594 23.2912C11.4174 23.2356 11.4174 23.18 11.4174 23.0687V22.2897C11.4174 22.1228 11.2434 21.9004 11.0693 21.789ZM17.2193 4.43055C16.9872 4.31932 16.755 4.43055 16.6971 4.65314C16.6391 4.70882 16.6391 4.76436 16.6391 4.87572V5.65459C16.6391 5.87717 16.8131 6.09963 16.9872 6.21099C21.5126 7.76871 23.8334 12.6091 22.1507 16.8931C21.2805 19.2298 19.3659 21.0101 16.9872 21.8447C16.755 21.9559 16.6391 22.1228 16.6391 22.4011V23.18C16.6391 23.4025 16.755 23.5695 16.9872 23.625C17.0452 23.625 17.1612 23.625 17.2193 23.5695C22.731 21.9004 25.748 16.281 24.0074 10.9957C22.9631 7.82439 20.4102 5.432 17.2193 4.43055Z" fill="white"/>
</svg>
