<svg width="28" height="28" viewBox="0 0 28 28" fill="none" xmlns="http://www.w3.org/2000/svg">
<path d="M0 14C0 8.54259 0 5.81389 1.25175 3.82174C1.90449 2.78291 2.78291 1.90449 3.82174 1.25175C5.81389 0 8.54259 0 14 0C19.4574 0 22.1861 0 24.1783 1.25175C25.2171 1.90449 26.0955 2.78291 26.7482 3.82174C28 5.81389 28 8.54259 28 14C28 19.4574 28 22.1861 26.7482 24.1783C26.0955 25.2171 25.2171 26.0955 24.1783 26.7482C22.1861 28 19.4574 28 14 28C8.54259 28 5.81389 28 3.82174 26.7482C2.78291 26.0955 1.90449 25.2171 1.25175 24.1783C0 22.1861 0 19.4574 0 14Z" fill="#26A17B"/>
<path d="M15.7756 11.9389V9.79299H20.6801V6.526H7.3279V9.79299H12.2324V11.9389C8.24874 12.1231 5.25 12.9118 5.25 13.8567C5.25 14.8016 8.24874 15.5903 12.2324 15.7745V22.6407H15.7796V15.7745C19.7593 15.5903 22.75 14.8016 22.75 13.8567C22.746 12.9118 19.7553 12.1231 15.7756 11.9389ZM15.7796 15.1939C15.6795 15.1979 15.1671 15.23 14.022 15.23C13.1052 15.23 12.4646 15.2059 12.2364 15.1939V15.1979C8.71717 15.0418 6.08676 14.4292 6.08676 13.6966C6.08676 12.9639 8.71317 12.3513 12.2364 12.1952V14.5814C12.4686 14.5974 13.1252 14.6374 14.038 14.6374C15.131 14.6374 15.6795 14.5934 15.7836 14.5814V12.1872C19.2988 12.3433 21.9212 12.9559 21.9212 13.6885C21.9132 14.4212 19.2908 15.0338 15.7796 15.1939" fill="white"/>
</svg>
