<svg width="28" height="28" viewBox="0 0 28 28" fill="none" xmlns="http://www.w3.org/2000/svg">
<path d="M0 14C0 8.54259 0 5.81389 1.25175 3.82174C1.90449 2.78291 2.78291 1.90449 3.82174 1.25175C5.81389 0 8.54259 0 14 0C19.4574 0 22.1861 0 24.1783 1.25175C25.2171 1.90449 26.0955 2.78291 26.7482 3.82174C28 5.81389 28 8.54259 28 14C28 19.4574 28 22.1861 26.7482 24.1783C26.0955 25.2171 25.2171 26.0955 24.1783 26.7482C22.1861 28 19.4574 28 14 28C8.54259 28 5.81389 28 3.82174 26.7482C2.78291 26.0955 1.90449 25.2171 1.25175 24.1783C0 22.1861 0 19.4574 0 14Z" fill="#3D95CE"/>
<path d="M20.7961 5.83331C21.3898 6.81386 21.6575 7.82382 21.6575 9.09961C21.6575 13.1687 18.1839 18.4548 15.3646 22.1666H8.9253L6.34277 6.72423L11.9811 6.18892L13.3465 17.1772C14.6223 15.0987 16.1967 11.8324 16.1967 9.60551C16.1967 8.38657 15.9879 7.55632 15.6615 6.87269L20.7961 5.83331Z" fill="white"/>
</svg>
