<svg width="28" height="28" viewBox="0 0 28 28" fill="none" xmlns="http://www.w3.org/2000/svg">
<path d="M0 14C0 8.54259 0 5.81389 1.25175 3.82174C1.90449 2.78291 2.78291 1.90449 3.82174 1.25175C5.81389 0 8.54259 0 14 0C19.4574 0 22.1861 0 24.1783 1.25175C25.2171 1.90449 26.0955 2.78291 26.7482 3.82174C28 5.81389 28 8.54259 28 14C28 19.4574 28 22.1861 26.7482 24.1783C26.0955 25.2171 25.2171 26.0955 24.1783 26.7482C22.1861 28 19.4574 28 14 28C8.54259 28 5.81389 28 3.82174 26.7482C2.78291 26.0955 1.90449 25.2171 1.25175 24.1783C0 22.1861 0 19.4574 0 14Z" fill="#6D1ED4"/>
<path fill-rule="evenodd" clip-rule="evenodd" d="M12.5625 6.89062V4.73438C12.5625 4.536 12.7305 4.375 12.9375 4.375H15.5625C15.7695 4.375 15.9375 4.536 15.9375 4.73438V6.89062H19.4999C19.9139 6.89062 20.2499 7.21263 20.2499 7.60938V9.40625C20.2499 9.60365 20.1667 9.78255 20.0321 9.91248L12.939 18.3907H19.5C19.914 18.3907 20.25 18.7127 20.25 19.1094V20.9063C20.25 21.303 19.914 21.625 19.5 21.625H15.9375V24.1406C15.9375 24.339 15.7695 24.5 15.5625 24.5H12.9375C12.7305 24.5 12.5625 24.339 12.5625 24.1406V21.625H8.625C8.211 21.625 7.875 21.303 7.875 20.9063V19.1094C7.875 18.9333 7.94123 18.7718 8.05112 18.6468C8.05962 18.6324 8.06966 18.6183 8.0813 18.6048L15.1768 10.125H8.99994C8.58594 10.125 8.24994 9.803 8.24994 9.40625V7.60938C8.24994 7.21263 8.58594 6.89062 8.99994 6.89062H12.5625Z" fill="white"/>
</svg>
